<svg width="1157.33" height="745.42" xmlns="http://www.w3.org/2000/svg" data-name="Capa 1">

 <g>
  <title>Layer 1</title>
  <path id="svg_1" fill="#ffffff" d="m269.91,44.78c7.21,-5.15 11.81,-12.06 14.77,-20.4c1.4,-3.94 1.41,-7.85 1.89,-11.82c0.38,-3.17 1.29,-6.49 2.86,-9.24c2.35,-4.13 6.46,-4.41 9.8,-0.83c1.66,1.77 3.26,4.17 3.63,6.48c1.32,8.27 1.31,16.61 -0.78,24.82c-2.19,8.6 -5.39,16.79 -11.25,23.54c-3.57,4.12 -7.9,7.58 -11.93,11.3c-0.81,0.75 -1.8,1.3 -3.34,2.39c7.26,1.47 13.87,2.69 20.42,4.18c8.34,1.9 16.72,3.11 25.31,3.22c9.76,0.12 19.52,0.84 29.28,1.18c8.32,0.3 16.65,0.42 24.98,0.66c6.31,0.18 12.62,0.42 18.94,0.63c12.62,0.43 25.25,0.85 37.87,1.29c12.33,0.43 24.66,0.85 36.99,1.31c10.2,0.38 20.4,0.8 30.6,1.22c10.31,0.42 20.62,0.84 30.93,1.31c8.39,0.38 16.79,0.68 25.17,1.27c9.77,0.69 19.53,1.7 29.29,2.48c4.19,0.34 8.41,0.36 12.6,0.68c10.63,0.8 21.25,1.68 31.87,2.51c1.05,0.08 2.12,0.05 3.18,0.01c18.84,-0.63 37.69,-1.03 56.51,-2c9.67,-0.5 19.33,-1.73 28.91,-3.19c8.19,-1.24 16.25,-3.29 24.38,-4.97c11.34,-2.35 22.88,-4.01 33.99,-7.18c19.06,-5.44 37.91,-11.61 56.72,-17.86c15.85,-5.26 31.41,-11.45 47.33,-16.49c8.99,-2.85 18.41,-4.37 27.7,-6.18c12.89,-2.51 25.92,-3.69 39.06,-2.75c16.34,1.17 32.15,4.56 47.35,10.93c13.43,5.64 25.24,13.77 36.56,22.67c4.83,3.79 10.4,4.76 16.01,6.02c9.51,2.13 19.13,3.85 28.51,6.45c8.99,2.49 16.74,7.44 23.85,13.59c9.36,8.08 15.23,18.2 18.98,29.74c2.4,7.4 3.86,14.96 3.85,22.8c0,3.45 0.54,6.9 0.57,10.35c0.06,7.1 0,14.21 -0.1,21.32c-0.11,7.72 -0.31,15.44 -0.51,23.15c-0.19,7.37 -0.42,14.75 -0.63,22.12c-0.22,7.9 -0.42,15.81 -0.64,23.71c-0.21,7.59 -0.42,15.17 -0.64,22.75c-0.2,6.84 -0.41,13.69 -0.64,20.53c-0.2,6.21 -0.56,12.41 -0.61,18.62c-0.1,12.07 -0.52,24.17 0.11,36.21c0.65,12.56 2.17,25.11 6.24,37.13c2.91,8.59 5.92,17.15 9.25,25.58c2.08,5.28 5.69,9.59 10.31,13.01c1.57,1.16 2.95,2.6 4.41,3.91c-0.16,0.26 -0.32,0.53 -0.47,0.79c-1.19,0.09 -2.38,0.19 -4.7,0.37c1.91,2.34 3.28,4.28 4.91,5.95c2.39,2.45 3.95,5.26 4.23,8.66c0.23,2.7 -0.03,5.48 0.46,8.12c0.79,4.32 2.02,8.55 3.09,12.96c-3.18,1.09 -3.75,-1.46 -4.72,-2.9c-1.71,-2.54 -3.08,-5.3 -4.63,-7.94c-0.24,-0.4 -0.74,-0.65 -1.73,-1.47c0.47,6.69 0.89,12.71 1.3,18.73l-0.56,0.23c-1.59,-2.88 -3.12,-5.79 -4.8,-8.62c-0.38,-0.64 -1.29,-0.98 -1.95,-1.46c-0.21,0.87 -0.72,1.79 -0.58,2.6c1.06,5.97 2.19,11.93 3.44,17.86c0.39,1.84 0.09,2.07 -1.58,1.32c-4.13,-1.86 -6.42,-4.87 -6.82,-9.49c-0.44,-5.03 -1.21,-10.04 -1.88,-15.05c-0.06,-0.48 -0.34,-0.96 -0.62,-1.37c-0.14,-0.2 -0.53,-0.24 -0.93,-0.4c-0.35,2.13 -0.69,4.17 -1.14,6.91c-3.13,-5.36 -5.98,-10.07 -8.67,-14.86c-2.24,-4 -4.91,-7.91 -6.29,-12.21c-1.71,-5.33 -2.34,-11.02 -3.32,-16.57c-1.28,-7.31 -2.48,-14.63 -3.62,-21.97c-0.99,-6.33 -1.91,-12.67 -2.74,-19.03c-0.92,-6.99 -2.03,-13.98 -2.46,-21c-0.46,-7.42 -0.18,-14.89 -0.29,-22.33c-0.02,-1.41 -0.46,-2.81 -0.47,-4.22c-0.23,-31.71 -0.39,-63.42 -0.65,-95.13c-0.1,-12.48 -0.09,-24.97 -0.68,-37.43c-1.04,-21.9 -4.16,-43.41 -14.58,-63.17c-1.52,-2.89 -3.51,-5.54 -5.7,-7.94c2.87,10.17 6.07,20.27 8.5,30.55c2.08,8.82 3.44,17.83 4.79,26.8c0.67,4.43 0.04,9.09 0.95,13.45c2.52,11.98 2.15,24.04 1.65,36.1c-0.28,6.85 -1.19,13.68 -1.9,20.5c-0.74,7.17 -1.41,14.34 -2.42,21.47c-0.86,6.06 -1.99,12.1 -3.31,18.08c-1.94,8.79 -4.06,17.55 -6.28,26.28c-1.7,6.66 -3.43,13.33 -5.6,19.84c-2.72,8.16 -5.87,16.17 -8.9,24.23c-3.52,9.34 -7.7,18.48 -10.51,28.03c-2.74,9.32 -2.9,19.04 -1.93,28.84c1.12,11.36 4.74,21.88 9.11,32.21c2.5,5.92 6.09,11.41 8.27,17.43c1.6,4.41 2.09,9.34 2.41,14.08c0.79,11.73 -1.2,23.2 -3.63,34.66c-2.34,11.02 -3.91,22.2 -5.85,33.3c-1.01,5.78 -1.65,11.69 -3.37,17.26c-0.84,2.72 -0.41,5.3 -0.93,7.94c-1.9,9.6 -2.28,19.4 -2.73,29.17c-0.33,7.23 -1.09,14.45 -1.17,21.68c-0.18,16.92 -0.09,33.84 -0.04,50.76c0.02,5.99 -1.65,11.44 -4.52,16.66c-2.69,4.91 -5.51,9.83 -7.44,15.05c-1.54,4.17 -1.83,8.8 -2.69,13.23c-1.42,7.3 -3.46,14.35 -10.78,17.95c-2.69,1.32 -5.84,2 -8.84,2.29c-5.33,0.52 -10.71,0.57 -16.06,0.71c-9.81,0.26 -19.63,0.39 -29.44,0.67c-3.61,0.1 -6.64,-1.11 -9.34,-3.37c-0.24,-0.16 -0.48,-0.32 -0.71,-0.47c-3.91,-3.38 -5.02,-7.68 -3.08,-12.45c0.92,-2.27 2.08,-4.44 3.13,-6.66c0.23,-0.17 0.46,-0.34 0.68,-0.51c2.15,-1.94 4.3,-3.89 6.45,-5.83c0.42,-0.3 0.85,-0.6 1.27,-0.9c8.45,-8.37 15.73,-17.6 20.7,-28.49c0.17,-0.36 0.23,-0.77 0.34,-1.16c0.17,-0.2 0.34,-0.41 0.51,-0.61c2.37,-7.49 5.43,-14.84 6.91,-22.5c1.63,-8.41 1.84,-17.09 2.61,-25.66c0.31,-3.44 0.83,-6.92 0.6,-10.33c-0.64,-9.44 -1.6,-18.86 -2.49,-28.28c-0.56,-5.89 -1.28,-11.76 -1.86,-17.65c-0.49,-5.06 -1.04,-10.12 -1.27,-15.2c-0.18,-3.91 1.35,-7.36 3.7,-10.52c5.42,-7.3 9.13,-15.36 10.94,-24.34c1.35,-6.7 0.7,-13.32 -0.05,-19.96c-0.48,-4.26 -1.16,-8.5 -1.74,-12.75c-0.23,-0.4 -0.46,-0.81 -0.69,-1.21c-1.72,-7.09 -3.44,-14.18 -5.17,-21.26c-0.35,-1.42 -0.73,-2.84 -1.1,-4.26c-0.2,-0.41 -0.39,-0.81 -0.59,-1.22c-1.33,-5.59 -3.09,-11.12 -3.86,-16.79c-0.61,-4.49 -0.01,-9.14 0.05,-13.72c0.21,-0.4 0.42,-0.8 0.63,-1.2c0.65,-4.61 3.52,-8 6.32,-11.42c1.17,-1.43 2.42,-2.8 3.64,-4.19c0,0 -0.04,0.08 -0.04,0.08c3.12,-2.94 6.67,-5.54 9.29,-8.88c5.75,-7.34 11.23,-14.93 16.43,-22.68c2.53,-3.76 4.19,-8.11 6.25,-12.19c0.17,-0.2 0.34,-0.4 0.51,-0.6c0.46,-1.29 0.93,-2.57 1.39,-3.86c0.17,-0.21 0.34,-0.42 0.51,-0.62c4.46,-11.8 8.16,-23.81 10.27,-36.25c-0.3,-0.11 -0.6,-0.22 -0.9,-0.33c-1.85,4.13 -3.52,8.34 -5.57,12.36c-5.18,10.12 -10.48,20.17 -15.86,30.19c-1.61,3 -3.6,5.8 -5.42,8.69c-0.18,0.07 -0.29,0.2 -0.32,0.4c-1.18,1.57 -2.35,3.13 -3.53,4.7c-0.16,0.06 -0.26,0.18 -0.29,0.36c-5.76,6.16 -11.46,12.38 -17.32,18.45c-1.89,1.96 -4.24,3.46 -6.3,5.26c-4.62,4 -8.59,8.58 -10.22,14.58c-1.41,5.19 -2.61,10.44 -1.3,15.97c1.52,6.43 2.46,13.01 3.99,19.43c1.88,7.89 4.46,15.62 6.13,23.55c2.14,10.2 5.53,20.26 4.63,30.92c-0.73,8.62 -4.29,16.08 -9.68,22.71c-5.58,6.87 -12.08,12.89 -16.72,20.66c-3.26,5.47 -5.42,11.39 -8.6,16.86c-4.2,7.23 -7.7,14.86 -11.61,22.26c-6.99,13.23 -14.2,26.35 -21.05,39.65c-4.47,8.67 -8.76,17.46 -12.55,26.44c-2.27,5.36 -3.19,11.26 -5.15,16.77c-1.91,5.33 -4.4,10.1 -9.93,13.2c-8.74,4.9 -12.86,13.36 -14.76,22.93c-1.09,5.52 -1.99,11.04 -5.15,15.92c-3.2,4.95 -8.03,7.31 -13.47,7.77c-9.83,0.83 -19.71,1.1 -29.57,1.35c-8.04,0.2 -16.12,-0.42 -24.11,0.18c-6.83,0.52 -14.11,-9.22 -11.08,-16.41c0.2,-0.47 0.14,-1.04 0.2,-1.57c0.15,-0.2 0.29,-0.41 0.44,-0.61c0.99,-3.36 3.35,-5.44 6.34,-7.06c1.58,-0.86 2.95,-2.09 4.42,-3.15c0.23,-0.13 0.45,-0.26 0.68,-0.39c0.83,-0.51 1.66,-1.01 2.49,-1.52c0.23,-0.15 0.47,-0.31 0.7,-0.46c4.66,-3.75 9.82,-7.03 13.86,-11.36c5.86,-6.28 11.31,-13.04 16.19,-20.12c3.79,-5.49 7.74,-11.01 9.59,-17.75c0.84,-3.04 3.56,-5.52 5.16,-8.41c3.76,-6.82 7.52,-13.64 10.97,-20.61c4.72,-9.53 9.15,-19.2 13.7,-28.82c0.18,-0.2 0.36,-0.41 0.54,-0.61c0.49,-1.49 0.98,-2.97 1.47,-4.46c0.37,-0.61 0.73,-1.22 1.1,-1.84c1.51,-4.84 3.08,-9.66 4.51,-14.53c1.3,-4.41 2.88,-8.79 3.56,-13.3c0.88,-5.79 1.09,-11.69 1.42,-17.56c0.33,-5.76 0.81,-11.55 0.57,-17.3c-0.3,-7.39 -0.57,-14.84 -2.97,-21.98c-0.2,-0.61 0.19,-1.42 0.3,-2.13l-0.91,-1.11c0,-0.65 0,-1.3 0,-1.96c-0.23,-0.41 -0.46,-0.82 -0.69,-1.22c-1.27,-4.77 -2.56,-9.52 -3.8,-14.3c-0.86,-3.31 -1.64,-6.63 -2.46,-9.95c-0.2,-0.41 -0.39,-0.81 -0.59,-1.22c-1.81,-7.31 -3.72,-14.6 -5.42,-21.94c-2.2,-9.48 -3.97,-19.07 -6.4,-28.49c-2.41,-9.37 -5.41,-18.59 -8.15,-27.87c-0.17,-0.2 -0.33,-0.4 -0.5,-0.59c-2.78,-4.96 -5.35,-10.04 -8.37,-14.85c-6.69,-10.63 -16.55,-17.93 -26.79,-24.77c-0.2,-0.16 -0.4,-0.32 -0.6,-0.48c-0.23,-0.08 -0.46,-0.17 -0.69,-0.25c-0.23,-0.12 -0.45,-0.25 -0.68,-0.37c-11.1,-6.51 -23.22,-4.91 -30.54,0.72c6.37,1.24 13.24,1.79 19.51,4.04c5.27,1.89 10.06,5.45 14.65,8.83c3.41,2.51 6.15,5.91 9.19,8.91c0.04,0.2 0.16,0.34 0.36,0.4c3.13,4.44 6.27,8.87 9.4,13.32c0.6,0.85 1.16,1.71 1.98,2.92c-3.56,3.25 -6.99,6.59 -10.63,9.67c-7.53,6.38 -15.14,12.65 -22.77,18.92c-2.32,1.91 -4.78,3.66 -7.18,5.48c-0.2,0.03 -0.35,0.13 -0.47,0.31c-6.13,3.93 -12.26,7.86 -18.39,11.79c-0.22,0.13 -0.43,0.25 -0.65,0.38c-3.87,2 -7.71,4.06 -11.63,5.97c-6.17,3.01 -12.3,6.15 -18.62,8.82c-7.5,3.17 -15.03,6.37 -22.81,8.69c-9.1,2.71 -18.48,4.53 -27.75,6.65c-3.3,0.76 -6.63,1.65 -9.98,1.83c-9.31,0.5 -18.56,2.57 -27.99,0.88c-2.68,-0.48 -5.59,0.56 -8.38,0.45c-12.55,-0.5 -24.96,-2.04 -37.23,-4.81c-8.66,-1.95 -17.41,-3.5 -26.1,-5.35c-6.16,-1.31 -12.25,-2.92 -18.41,-4.24c-5.86,-1.26 -11.77,-2.32 -17.66,-3.47c-0.22,-0.17 -0.44,-0.35 -0.67,-0.52c-5.49,-1.33 -11.34,-1.03 -16.49,-3.96c-0.99,-0.57 -2.71,0.32 -4.02,0.1c-5.1,-0.87 -10.44,-0.56 -15.2,-3.35c-1.05,-0.62 -2.91,0.3 -4.36,0.16c-1.16,-0.11 -2.27,-0.76 -3.4,-1.17c-0.33,-0.12 -0.78,-0.48 -0.96,-0.37c-3.1,1.85 -6.14,-0.03 -9.19,-0.16c-3.54,-0.14 -7.07,-0.78 -10.6,-0.76c-11.91,0.09 -23.83,0.31 -35.73,0.62c-5.34,0.14 -10.67,0.59 -16.16,0.91c-1.29,-8.19 1.35,-15.35 3.7,-22.56c0.37,-0.61 0.74,-1.22 1.12,-1.84c0.24,-0.88 0.49,-1.76 0.73,-2.63c0.17,-0.21 0.35,-0.41 0.52,-0.62c1.31,-2.98 2.62,-5.95 3.94,-8.93c0.17,-0.2 0.35,-0.4 0.52,-0.61c2.41,-6.79 4.83,-13.58 7.24,-20.37c0.18,-0.41 0.37,-0.82 0.55,-1.23c2.11,-10.8 4.11,-21.65 3.57,-32.69c-0.42,-8.61 -1.58,-17.19 -2.49,-25.78c-0.06,-0.55 -0.74,-1.04 -1.77,-2.4c-0.53,4.95 -0.92,8.92 -1.39,12.87c-1.25,10.46 -2.64,20.91 -3.77,31.39c-1.38,12.83 -6.61,24.06 -13.01,35.1c-5.4,9.32 -9.16,19.52 -9.9,30.44c-0.54,7.99 -0.98,16.05 -0.53,24.03c0.38,6.82 2.14,13.56 3.19,20.35c0.68,4.42 1.26,8.86 1.72,13.31c0.36,3.45 0.63,6.92 0.64,10.38c0.03,18.42 -3.26,36.28 -9,53.75c-3.7,11.26 -6.39,22.76 -7.53,34.58c-0.7,7.3 -1.58,14.6 -1.82,21.91c-0.31,9.65 -0.56,19.35 0.05,28.97c0.7,11.02 2.44,21.97 3.58,32.96c0.44,4.2 0.13,7.97 -2.94,11.76c-5.42,6.68 -7.22,15.16 -9.02,23.41c-2.22,10.19 -8.82,15.82 -18.58,17.86c-4.75,0.99 -9.74,0.84 -14.6,1.36c-5.05,0.54 -10.06,1.37 -15.11,1.89c-8.88,0.92 -17.92,1.49 -26.04,-2.88c-7,-3.76 -9.6,-10.88 -3.08,-17.72c3.94,-4.13 9.17,-7.07 13.98,-10.32c6.94,-4.7 11.68,-10.98 15.4,-18.46c4.48,-9.01 5.91,-18.62 7.32,-28.33c0.72,-4.95 1.8,-9.85 2.53,-14.8c0.59,-3.98 1.1,-8 1.28,-12.01c0.53,-11.55 1.35,-23.11 1.16,-34.66c-0.15,-9.31 -1.74,-18.59 -2.42,-27.9c-0.9,-12.43 -4.07,-24.41 -7.03,-36.42c-0.99,-4.04 -2.59,-7.93 -3.98,-11.86c-0.16,-0.46 -0.78,-0.76 -1.69,-1.58c0.95,7.95 1.86,15.22 2.69,22.49c0.42,3.64 0.82,7.3 1.03,10.96c0.31,5.68 0.5,11.37 0.65,17.05c0.25,9.18 0.85,18.38 0.53,27.55c-0.34,9.71 -1.43,19.41 -2.46,29.09c-1.1,10.26 -2.43,20.5 -3.82,30.73c-1.16,8.47 -2.13,17 -3.98,25.34c-1.85,8.36 -6.72,11.45 -15.31,12.99c-6.4,1.15 -12.8,2.31 -19.25,3.1c-8.08,0.99 -15.7,-0.17 -21.01,-7.16c-1.02,-1.34 -1.19,-3.81 -0.87,-5.6c1.04,-5.87 5.25,-9.57 9.39,-13.5c4.18,-3.95 7.84,-8.51 11.34,-13.1c4.52,-5.92 6.79,-12.93 7.87,-20.18c0.87,-5.85 0.97,-11.83 1.28,-17.76c0.31,-5.78 0.72,-11.57 0.61,-17.34c-0.17,-8.91 -0.45,-17.84 -1.25,-26.71c-0.87,-9.57 -2.03,-19.14 -3.74,-28.58c-1.45,-7.98 -3.56,-15.89 -5.95,-23.65c-2.54,-8.23 -5.9,-16.19 -8.65,-24.36c-2.11,-6.26 -7.21,-9.81 -11.71,-13.99c-4.06,-3.77 -7.74,-7.97 -11.85,-11.68c-4.58,-4.14 -9.17,-8.37 -14.28,-11.78c-6.42,-4.29 -13.31,-7.89 -20.12,-11.57c-3.17,-1.71 -7.24,-2.21 -9.81,-4.49c-4.54,-4.03 -8.3,-8.97 -12.3,-13.6c-3.37,-3.89 -6.71,-7.63 -11.93,-9.26c-4.66,-1.46 -6.16,-6 -7.12,-9.99c-1.43,-5.96 -1.78,-12.18 -2.61,-18.29c-0.88,-6.44 -1.86,-12.87 -2.67,-19.32c-0.73,-5.85 -1.45,-11.71 -1.9,-17.59c-0.9,-11.66 -4.41,-22.22 -12.59,-30.88c-5.27,-5.58 -10.54,-11.17 -16,-16.55c-3.24,-3.19 -6.85,-6 -10.3,-8.98c-0.22,-0.13 -0.45,-0.27 -0.67,-0.4c-3.11,-1.58 -6.39,-2.48 -9.87,-1.91c-18.84,3.12 -37.85,1 -56.75,1.87c-5.09,0.23 -9.58,-1.85 -14.01,-4.08c-2.13,-1.07 -4.33,-2.01 -6.5,-3.01c-0.2,-0.18 -0.41,-0.36 -0.61,-0.53c-0.43,-0.06 -0.87,-0.13 -1.3,-0.19c-0.21,-0.15 -0.41,-0.29 -0.62,-0.44c-1.06,-0.25 -2.13,-0.5 -3.19,-0.75c-0.2,-0.18 -0.4,-0.36 -0.6,-0.53c-4.23,-2.24 -8.62,-4.23 -12.65,-6.8c-3.37,-2.15 -3.21,-6.27 -3.84,-9.7c-0.64,-3.47 -0.56,-7.07 -0.72,-10.62c-0.35,-7.7 2.52,-14.32 6.69,-20.61c2.12,-3.2 3.69,-6.77 5.51,-10.18c0.17,-0.21 0.35,-0.42 0.52,-0.62c4.26,-10.64 5.17,-21.79 4.42,-33.03c-0.52,-7.68 -2.09,-15.29 -3.11,-22.94c-0.35,-2.58 -0.52,-5.19 -0.66,-7.79c-0.26,-4.92 -0.39,-9.85 -0.67,-14.78c-0.27,-4.82 -0.66,-9.63 -0.98,-14.21c-7.55,-0.7 -15.04,-1.27 -22.5,-2.11c-7.04,-0.8 -14.13,-1.52 -21.07,-2.91c-17.01,-3.42 -28.56,-13.92 -36.26,-29.08c-1.48,-2.91 -2.94,-5.84 -4.21,-8.84c-2.27,-5.36 -0.48,-10.22 4.96,-14.28c5.86,-4.37 12.08,-8.09 19.14,-10.15c6.74,-1.97 13.69,-2.35 20.51,-0.9c7.62,1.61 15.21,3.55 22.61,5.95c7.86,2.55 15.48,5.83 23.22,8.75c1.01,0.38 2.13,0.51 3.52,0.83c-0.93,-3.08 -1.48,-5.78 -2.55,-8.25c-1.31,-3.03 -3.9,-4.9 -7,-5.97c-2.11,-0.73 -4.25,-1.36 -6.38,-2.04c-0.21,-0.18 -0.42,-0.35 -0.63,-0.53c-1.27,-0.46 -2.55,-0.92 -3.82,-1.38c-0.2,-0.18 -0.41,-0.36 -0.61,-0.54c-1.07,-0.49 -2.15,-0.98 -3.22,-1.46c-0.2,-0.15 -0.41,-0.29 -0.61,-0.44c-0.65,-0.29 -1.29,-0.57 -1.94,-0.86c-0.23,-0.13 -0.45,-0.26 -0.68,-0.39c-0.84,-0.51 -1.67,-1.03 -2.51,-1.54c-0.23,-0.13 -0.46,-0.26 -0.69,-0.39c-11.58,-6.95 -20.29,-16.64 -26.24,-28.65c-3.36,-6.78 -6.57,-13.82 -6.07,-21.71c0.22,-3.46 0.96,-6.92 1.78,-10.3c0.75,-3.09 3.98,-5.67 6.31,-5.52c2.31,0.15 5.97,3.46 6.46,6.05c0.72,3.84 1.28,7.71 1.94,11.56c1.13,6.56 4.83,11.49 9.6,15.95c4.74,4.44 9.76,8.33 15.64,11.19c6.89,3.35 14.08,4.81 21.65,4.16c1.42,-0.12 3.09,-1.06 4.05,-2.15c7.45,-8.44 16.51,-13.97 27.72,-15.55c7.39,-1.04 14.81,-2.15 22.25,-2.48c12.33,-0.56 24.69,-0.88 37.02,-0.6c8.28,0.18 16.69,0.88 24.74,2.68c4.88,1.09 9.29,4.58 13.73,7.27c2.81,1.7 5.1,4.34 8,5.79c2.76,1.38 5.97,2.25 9.05,2.49c7.83,0.61 15.53,-0.09 22.51,-4.27c0.53,-0.32 1.16,-0.47 1.75,-0.71c0.18,-0.13 0.37,-0.26 0.55,-0.39c0.23,-0.09 0.45,-0.18 0.68,-0.26c0.2,-0.16 0.4,-0.31 0.61,-0.47c0.39,-0.27 0.78,-0.54 1.18,-0.81c0.24,-0.16 0.49,-0.31 0.73,-0.47l-0.1,-0.06zm212.86,289.73c-0.19,0 -0.38,0.01 -0.57,0.02l0,1.91c0.19,0 0.38,-0.01 0.57,-0.02l0,-1.91zm576.68,-2.13c-0.09,-0.17 -0.13,-0.43 -0.26,-0.48c-0.13,-0.05 -0.34,0.09 -0.51,0.15c0.11,0.21 0.22,0.42 0.32,0.63c0.15,-0.1 0.29,-0.19 0.45,-0.3zm0.39,-1.64c-0.01,-0.07 0,-0.17 -0.05,-0.2c-0.06,-0.04 -0.16,-0.04 -0.25,-0.05c0.02,0.12 0.05,0.23 0.07,0.35c0.08,-0.03 0.15,-0.06 0.23,-0.09l0,-0.01z" class="cls-1"/>
 </g>
</svg>