<?xml version="1.0" encoding="UTF-8"?>
<svg id="Capa_1" data-name="Capa 1" xmlns="http://www.w3.org/2000/svg" viewBox="0 0 1169.29 1168.57">
  <defs>
    <style>
      .cls-1 {
        fill: #fff;
      }
    </style>
  </defs>
  <g>
    <path class="cls-1" d="m1.98,572.71c0,8,0,15.99,0,23.99-.7-1.95-1.96-3.9-1.98-5.85-.05-5.67.39-11.35.72-17.01.02-.4.82-.75,1.25-1.12Z"/>
    <path class="cls-1" d="m173.64,999.25c2.96.1,4.52,1.59,4.59,4.58l-4.59-4.58Z"/>
    <path class="cls-1" d="m168.44,994.03c2.64-.1,3.9,1.17,3.8,3.8-1.27-1.27-2.53-2.54-3.8-3.8Z"/>
    <path class="cls-1" d="m54.7,829.83c.21.24.43.49.64.73-.21-.24-.43-.49-.64-.73Z"/>
    <path class="cls-1" d="m46.47,811.09c.2.25.41.5.61.75-.2-.25-.41-.5-.61-.75Z"/>
    <path class="cls-1" d="m26.35,754.88c.16.25.33.49.49.74-.16-.25-.33-.49-.49-.74Z"/>
    <path class="cls-1" d="m50.95,821.59c.21.24.43.49.64.73-.21-.24-.43-.49-.64-.73Z"/>
    <path class="cls-1" d="m212.01,910.53c0,5.47-3.78,9.24-9.27,9.27-5.04.03-9.5-4.81-9.48-10.29.02-5.65,3.5-9.21,9.02-9.21,5.68,0,9.74,4.27,9.73,10.24Z"/>
    <path class="cls-1" d="m109.99,737.62c5.3-.89,9.7,4.51,9.8,10.21.09,4.98-4.14,9.21-9.14,9.29-5.63.09-9.62-4.31-9.59-10.59.03-5.59,3.35-8.9,8.94-8.92Z"/>
    <path class="cls-1" d="m244.24,944.66c-.01,5.6-3.36,8.88-9.03,8.87-4.92,0-10.38-5.04-10.48-9.66-.09-4.56,4.87-9.12,9.91-9.09,5.5.03,9.6,4.26,9.59,9.88Z"/>
    <path class="cls-1" d="m97.32,656.22c0,5.67-3.17,9.17-8.01,9.41-6.58.33-9.95-5.25-10.07-10.94-.09-4.27,3.91-8.88,9.34-8.59,5.5.3,8.75,3.82,8.74,10.11Z"/>
    <path class="cls-1" d="m119.86,422.84c.08,5.71-4.24,10.45-9.5,10.42-5.03-.03-9.16-3.95-9.31-8.86-.17-5.43,3.76-9.81,8.84-9.88,6.34-.08,9.89,2.88,9.97,8.31Z"/>
    <path class="cls-1" d="m148.7,823.83c6.26,0,9.35,3.21,9.34,9.71,0,5.71-3.61,9.03-9.82,9.05-4.73,0-8.92-4.71-8.94-10.08-.02-5.25,3.69-8.67,9.42-8.67Z"/>
    <path class="cls-1" d="m127.46,389.06c-5.3.07-9.12-3.46-9.17-8.47-.06-5.62,4.21-10.31,9.46-10.4,5.31-.1,9.44,3.83,9.41,8.95-.03,5.79-4,9.85-9.7,9.93Z"/>
    <path class="cls-1" d="m173.67,863.56c5.93,0,9.59,3.81,9.94,9.51.29,4.72-4.52,9.54-9.29,9.3-5.77-.29-9.46-4.23-9.46-10.71,0-5.49,2.84-8.1,8.81-8.11Z"/>
    <path class="cls-1" d="m183.52,297.61c.04,5.57-4.28,9.88-9.89,9.86-4.64-.02-8.76-4.08-8.81-8.69-.07-5.69,4.38-10.43,9.79-10.44,5.32,0,8.86,3.68,8.91,9.27Z"/>
    <path class="cls-1" d="m244.24,225.94c-.04,6.19-3.57,9.47-10.16,9.44-4.92-.02-8.66-3.85-8.57-8.79.09-5.11,5.02-9.97,10.11-9.96,5.42,0,8.66,3.51,8.62,9.31Z"/>
    <path class="cls-1" d="m259.97,975.06c.04-5.14,3.87-8.8,9.22-8.8,5.37,0,10.4,4.77,10.04,10.1-.38,5.59-4,8.68-9.37,8.65-5.66-.04-9.94-4.34-9.89-9.95Z"/>
    <path class="cls-1" d="m127.29,781.85c5.55-.01,9.72,4.14,9.75,9.73.03,5.21-3.86,9.04-9.18,9.02-5.45-.02-9.57-4.35-9.57-10.08,0-5.33,3.45-8.66,9-8.68Z"/>
    <path class="cls-1" d="m88.99,505.99c5.31-1.04,9.21,4.28,9.18,8.46-.05,6.1-4.16,10.28-10.33,10.27-4.05,0-8.55-4.8-8.53-9.07.04-5.98,3.73-9.66,9.68-9.66Z"/>
    <path class="cls-1" d="m96.98,692.65c6.15-.02,9.34,3.3,9.33,9.71,0,5.38-3.43,9.04-8.45,9.05-6.55.01-9.39-3.23-9.61-10.23-.15-4.91,3.61-9.55,8.73-8.53Z"/>
    <path class="cls-1" d="m92.82,562.11c.05,5.98-2.94,9.24-8.47,9.23-5.32-.01-9.5-4.04-9.53-9.18-.03-5.68,3.55-9.63,8.8-9.69,6.43-.08,9.15,2.77,9.2,9.64Z"/>
    <path class="cls-1" d="m97.45,459.51c5.71-.03,8.84,2.96,8.87,8.5.03,6.35-3.47,10.33-9.08,10.31-5-.01-8.83-3.96-8.94-9.03-.12-5.12,3.76-10.76,9.16-9.78Z"/>
    <path class="cls-1" d="m158.03,336.94c-.03,6.42-3.7,10.41-9.47,10.3-4.88-.09-9.66-4.62-9.2-9.28.48-4.86,4.32-10.03,10.2-9.78,5.17.22,8.5,3.53,8.47,8.76Z"/>
    <path class="cls-1" d="m270.74,185.9c5.31,0,8.89,3.55,8.86,8.79-.03,5.01-4.89,9.81-10.09,9.96-4.35.13-8.85-4.55-8.91-9.25-.06-5.46,4.25-9.5,10.14-9.5Z"/>
    <path class="cls-1" d="m203.36,251.87c5.36,0,8.65,2.98,8.66,7.86.01,6.55-3.18,10.14-9.01,10.14-5.84,0-9.76-3.46-9.76-8.63,0-5.29,4.39-9.37,10.11-9.37Z"/>
    <path class="cls-1" d="m84.78,599.7c5.19,0,9.04,3.49,8.73,8.42-.37,5.85-3.02,10.54-10.09,10.34-4.38-.12-8.81-4.94-8.59-9.55.27-5.44,4.34-9.21,9.95-9.22Z"/>
    <g>
      <path class="cls-1" d="m26.35,754.88c-2.88-10.88-5.85-21.75-8.62-32.66-1.44-5.69-2.69-11.44-3.74-17.22-2.31-12.7-4.71-25.39-6.56-38.16-1.64-11.36-2.87-22.79-3.74-34.23-.91-11.95-1.16-23.94-1.71-35.91v-23.99c.04-3.87-.09-7.74.16-11.59.67-10.31,1.49-20.6,2.29-30.9.44-5.73.67-11.49,1.49-17.16,1.56-10.74,3.45-21.42,5.26-32.12.92-5.46,1.79-10.94,2.98-16.35,2.43-11.06,4.66-22.2,7.7-33.1,3.56-12.76,7.46-25.46,12-37.9,5.78-15.8,12.19-31.36,18.62-46.91,9.86-23.85,22.47-46.32,36.11-68.14,9.35-14.96,19.79-29.24,30.14-43.54,7.09-9.79,14.72-19.2,22.38-28.56,4.6-5.62,9.61-10.91,14.62-16.16,9.71-10.15,19.3-20.43,29.41-30.17,7.91-7.62,16.66-14.37,24.81-21.77,15.83-14.38,33.26-26.69,50.82-38.75,12.36-8.49,25.32-16.2,38.44-23.49,13.67-7.6,27.63-14.77,41.88-21.21,16.19-7.31,32.72-13.89,49.31-20.26,22.83-8.76,46.56-14.64,70.31-20.2,13.01-3.04,26.31-4.89,39.55-6.84,11.01-1.62,22.09-2.81,33.18-3.78,9.46-.83,18.98-1.06,28.47-1.57,5.31-.28,10.61-.58,15.92-.87,4.5,0,9,0,13.49,0,8.43.29,16.88.35,25.29.93,11.01.76,22.01,1.83,32.99,2.98,7.76.81,15.51,1.82,23.22,3,10.56,1.61,21.18,3.01,31.59,5.34,15.98,3.58,32.03,7.18,47.65,12.04,19.48,6.06,38.75,12.9,57.73,20.37,13.5,5.31,26.46,12.03,39.47,18.5,10.55,5.25,20.94,10.85,31.16,16.69,8.79,5.03,17.33,10.51,25.85,15.99,19.87,12.77,38.89,26.74,56.54,42.42,16.42,14.59,33.12,29.04,48.03,45.09,15.95,17.17,30.43,35.79,44.65,54.46,10.46,13.74,19.96,28.29,29,43.03,9.25,15.09,18.04,30.53,25.9,46.38,7.82,15.75,14.56,32.07,21.15,48.4,4.03,9.99,7.09,20.4,10.23,30.73,4.19,13.77,8.46,27.54,11.89,41.51,3.03,12.34,5.13,24.92,7.31,37.46,2,11.5,3.77,23.06,5.21,34.64.93,7.44,1.29,14.98,1.55,22.48.66,19.24,1.39,38.48,1.55,57.72.09,10.48-.62,21-1.52,31.46-.88,10.3-2.13,20.6-3.8,30.8-2.93,17.82-6.37,35.56-9.49,53.35-1.83,10.42-4.51,20.53-8.32,30.47-3.25,8.49-4.36,17.79-7.48,26.34-6.14,16.84-12.75,33.53-19.69,50.06-4.25,10.14-8.96,20.16-14.37,29.71-10.85,19.13-22.18,38-33.63,56.78-3.15,5.16-7.49,9.58-11.13,14.46-3.07,4.11-5.51,8.75-8.97,12.48-3.72,4.01-6.01,9.05-10.39,12.64-3.07,2.52-4.93,6.53-7.32,9.87-.26.37-.45.8-.77,1.12-7.09,7.17-12.64,15.64-20.06,22.59-9.5,8.91-17.96,18.92-27.42,27.88-8.72,8.25-18.24,15.64-27.27,23.57-18.62,16.35-39.1,30.13-59.81,43.58-21.92,14.24-44.89,26.63-68.66,37.5-33.87,15.49-68.85,27.84-105.1,36.46-11.56,2.75-23.17,5.36-34.86,7.51-9.54,1.75-19.22,2.79-28.86,4.02-10.27,1.31-20.55,2.5-30.84,3.67-1.73.2-3.49.04-5.24.06-24.67.24-49.34.8-74.01.58-10.13-.09-20.25-1.77-30.37-2.85-8.5-.91-17.02-1.76-25.46-3.06-9.69-1.49-19.42-3-28.95-5.3-18.26-4.41-36.63-8.59-54.48-14.35-19.83-6.39-39.42-13.76-58.57-21.97-17.4-7.46-34.35-16.1-50.99-25.15-22.63-12.3-44.27-26.27-64.58-42.17-11.76-9.21-23.45-18.53-34.86-28.17-8.19-6.91-15.87-14.42-23.77-21.67-.07-2.99-1.64-4.48-4.59-4.58-.47-.47-.94-.94-1.4-1.41.1-2.64-1.16-3.9-3.8-3.8-7.74-8.48-15.58-16.87-23.18-25.47-7-7.93-13.87-15.99-20.55-24.2-4.44-5.45-8.56-11.17-12.59-16.93-6.46-9.26-12.87-18.56-19.05-28.01-12.22-18.68-22.95-38.2-32.61-58.32-1.69-3.52-3.42-7.03-5.13-10.54-.21-.24-.43-.49-.64-.73-1.04-2.5-2.07-5.01-3.11-7.51-.21-.24-.43-.49-.64-.73-1.29-3.25-2.58-6.49-3.87-9.74-.2-.25-.41-.5-.61-.75-3.05-8.06-6.23-16.08-9.13-24.2-3.43-9.58-6.64-19.23-9.93-28.86-.27-.78-.38-1.6-.57-2.41-.16-.25-.33-.49-.49-.74ZM993.55,217.29c-2.93-3.12-5.76-6.35-8.81-9.35-8.49-8.35-17.02-16.65-25.62-24.88-5.29-5.06-10.52-10.21-16.16-14.85-9.52-7.83-19.36-15.28-29.05-22.9-4-3.15-7.84-6.53-11.99-9.48-4.71-3.34-9.68-6.31-14.53-9.44-.26-.14-.52-.29-.78-.43-1.98-1.31-3.97-2.63-5.95-3.94-.24-.2-.47-.39-.71-.59-1.02-.59-2.03-1.18-3.05-1.77l-.82-.47c-.47-.33-.95-.66-1.42-.99-.27-.16-.54-.32-.81-.49-.98-.59-1.96-1.19-2.94-1.78-.27-.15-.54-.31-.81-.46-.98-.58-1.96-1.16-2.93-1.74-.24-.18-.47-.37-.71-.55-.27-.1-.54-.2-.81-.3-.26-.14-.52-.28-.78-.42-.99-.59-1.97-1.18-2.96-1.77-.27-.16-.54-.31-.81-.47-3.73-2.1-7.46-4.19-11.19-6.29-.27-.15-.54-.3-.81-.45-1.98-1.09-3.95-2.18-5.93-3.26-.23-.18-.47-.35-.7-.53-.27-.09-.54-.19-.81-.28-.27-.14-.53-.29-.8-.43-1.48-.76-2.93-1.58-4.44-2.26-17-7.64-33.87-15.58-51.04-22.81-19.74-8.31-40.27-14.44-60.97-19.86-20.51-5.37-41.25-9.69-62.35-12.08-13-1.47-25.97-3.22-38.99-4.4-8.88-.81-17.84-1.31-26.75-1.16-18.73.3-37.48.8-56.18,1.85-11.65.65-23.33,1.95-34.84,3.89-17.34,2.92-34.65,6.16-51.77,10.15-43.92,10.22-85.45,26.92-125.24,47.92-54.81,28.92-103.05,66.47-145.16,111.9-55.4,59.75-95.67,128.39-120.5,206.01-4.36,13.61-8.27,27.4-11.61,41.29-2.88,11.94-4.78,24.12-6.87,36.24-1.7,9.9-3.41,19.82-4.45,29.79-1.15,11.03-1.71,22.13-2.24,33.21-.44,9.1-.92,18.25-.54,27.34.36,8.81-.83,17.56.24,26.43.92,7.63.37,15.45,1.7,23.11.43,2.51-.22,4.94.52,7.64,1.3,4.74,1.2,9.86,1.74,14.81.28,2.55.6,5.09,1.03,7.62,1.37,8.09,2.86,16.17,4.18,24.27.7,4.3.77,8.74,1.77,12.96,1.33,5.61,3.39,11.05,4.98,16.6,3.56,12.45,6.86,24.98,10.57,37.39,2.29,7.66,4.73,15.32,7.81,22.68,6.28,15.03,12.74,30,19.68,44.73,5.39,11.43,11.19,22.72,17.58,33.62,8.11,13.82,16.52,27.52,25.68,40.66,8.93,12.82,18.7,25.09,28.61,37.18,8.65,10.55,17.78,20.73,27.12,30.68,7.05,7.52,14.63,14.56,22.23,21.55,8.17,7.52,16.48,14.9,24.99,22.03,17.17,14.4,35.2,27.69,54.26,39.49,11.95,7.4,24.05,14.64,36.49,21.17,14.91,7.83,29.93,15.67,45.51,21.99,18.42,7.47,37.37,13.72,56.33,19.73,13.29,4.21,26.88,7.61,40.52,10.49,13.64,2.88,27.47,4.92,41.29,6.82,13.44,1.85,26.94,3.73,40.48,4.39,16.33.79,32.72.65,49.07.28,13.19-.3,26.37-1.49,39.54-2.38,5.75-.39,11.54-.68,17.23-1.57,11.26-1.76,22.51-3.67,33.66-5.97,13.81-2.85,27.63-5.78,41.26-9.4,12.76-3.39,25.54-7.03,37.81-11.82,19.12-7.47,38.03-15.59,56.66-24.21,18.22-8.44,35.73-18.28,52.37-29.61,9.94-6.77,19.99-13.37,29.82-20.28,5.53-3.89,10.77-8.2,16.04-12.45,6.21-5,12.38-10.04,18.42-15.24,5.4-4.65,10.69-9.42,15.85-14.33,8.47-8.06,17.11-15.99,25.11-24.49,8.55-9.08,16.47-18.74,24.62-28.2,4.22-4.9,8.76-9.61,12.43-14.91,10.88-15.69,21.67-31.46,31.95-47.54,7.05-11.02,13.28-22.57,19.69-33.98,2.41-4.29,4.3-8.87,6.42-13.31.22-.24.43-.48.65-.72,1.54-3.51,3.07-7.02,4.61-10.52.21-.24.43-.48.64-.72,1.54-3.76,3.07-7.51,4.61-11.27.47-.71.94-1.43,1.42-2.14.29-1.04.58-2.08.87-3.11.2-.24.4-.49.59-.73,1.31-3.5,2.63-7,3.94-10.5.43-.76.86-1.51,1.3-2.27,2.57-7.5,5.14-15,7.71-22.5.18-.25.36-.49.54-.74.29-1.25.58-2.5.87-3.75.21-.25.42-.5.63-.75,1.56-4.94,3.08-9.88,4.7-14.8.84-2.57,2.11-5.02,2.73-7.63,1.41-5.91,2.44-11.9,3.82-17.82,1.09-4.68,2.75-9.24,3.67-13.95,1.21-6.19,1.97-12.46,2.9-18.7,1.32-8.88,2.71-17.75,3.89-26.65.67-5.06,1.93-9.95,1.83-15.26-.12-6.68,1.98-13.37,2.57-20.11.47-5.44.15-10.96.14-16.44-.03-13.11,1.02-26.21-.63-39.34-1.09-8.67-1.07-17.47-1.63-26.2-.39-6.12-.62-12.27-1.47-18.33-1.54-10.97-3.23-21.93-5.32-32.8-2.92-15.19-6.02-30.36-9.53-45.42-1.81-7.78-4.69-15.31-7.07-22.96-.24-.79-.39-1.6-.58-2.4-.18-.25-.36-.5-.54-.75-.07-.5-.14-1-.21-1.49-.18-.25-.36-.5-.54-.76-.07-.5-.14-.99-.21-1.49-.18-.25-.36-.51-.54-.76-.07-.5-.14-.99-.21-1.49-.18-.25-.36-.51-.54-.76-.07-.5-.14-.99-.21-1.49-.18-.25-.36-.51-.55-.76-.57-2-1.13-4-1.7-6-.42-.75-.84-1.51-1.26-2.26-3.32-8.75-6.65-17.5-9.97-26.26-.19-.24-.39-.47-.58-.71-.55-1.52-1.11-3.03-1.66-4.55-.21-.23-.43-.47-.64-.7-.79-2.01-1.57-4.03-2.36-6.05-.21-.23-.43-.47-.64-.7-1.29-3.01-2.57-6.02-3.86-9.04-.21-.24-.43-.47-.64-.71-.14-.46-.19-.96-.42-1.38-7.21-13.51-13.96-27.29-21.8-40.42-8.73-14.61-18.13-28.85-27.85-42.82-6.82-9.81-14.58-18.97-22.07-28.29-4.83-6.02-9.94-11.82-14.93-17.71-.36-.47-.71-.93-1.07-1.4Z"/>
      <path class="cls-1" d="m591.31,1.37c-4.5,0-9,0-13.49,0,.5-.45.99-1.27,1.51-1.29,3.49-.12,6.99-.12,10.48,0,.52.02,1.01.84,1.51,1.29Z"/>
      <path class="cls-1" d="m994.62,218.69c4.98,5.9,10.09,11.69,14.93,17.71,7.49,9.33,15.25,18.49,22.07,28.29,9.72,13.98,19.13,28.21,27.85,42.82,7.84,13.13,14.58,26.92,21.8,40.42.22.42.28.92.42,1.38.21.24.43.47.64.71,1.29,3.01,2.57,6.02,3.86,9.04.21.23.43.47.64.7.79,2.01,1.57,4.03,2.36,6.04.21.23.43.47.64.7.55,1.52,1.11,3.03,1.66,4.55.19.24.39.47.58.71,3.32,8.75,6.65,17.5,9.97,26.26.42.75.84,1.51,1.26,2.26.57,2,1.13,4,1.7,6,.18.25.36.51.55.76.07.5.14.99.21,1.49.18.25.36.51.54.76.07.5.14.99.21,1.49.18.25.36.51.54.76.07.5.14.99.21,1.49.18.25.36.5.54.76.07.5.14,1,.21,1.49.18.25.36.5.54.75.19.8.34,1.62.58,2.4,2.38,7.65,5.26,15.18,7.07,22.96,3.51,15.06,6.61,30.23,9.53,45.42,2.09,10.87,3.78,21.83,5.32,32.8.85,6.06,1.08,12.21,1.47,18.33.56,8.74.54,17.54,1.63,26.2,1.65,13.13.6,26.23.63,39.34.01,5.48.34,11-.14,16.44-.59,6.73-2.69,13.43-2.57,20.11.1,5.3-1.16,10.19-1.83,15.26-1.18,8.9-2.57,17.77-3.89,26.65-.93,6.24-1.68,12.52-2.9,18.7-.92,4.71-2.58,9.27-3.67,13.95-1.38,5.91-2.41,11.91-3.82,17.82-.62,2.61-1.89,5.06-2.73,7.63-1.62,4.92-3.14,9.87-4.7,14.8-.21.25-.42.5-.63.75-.29,1.25-.58,2.5-.87,3.75-.18.25-.36.49-.54.74-2.57,7.5-5.14,15-7.71,22.5-.43.76-.86,1.51-1.3,2.27-1.31,3.5-2.63,7-3.94,10.5-.2.24-.4.49-.59.73-.29,1.04-.58,2.08-.87,3.11-.47.71-.94,1.43-1.42,2.14-1.54,3.76-3.07,7.51-4.61,11.27-.21.24-.43.48-.64.72-1.54,3.51-3.07,7.02-4.61,10.52-.22.24-.43.48-.65.72-2.12,4.45-4.01,9.02-6.42,13.31-6.41,11.41-12.65,22.96-19.69,33.98-10.28,16.08-21.08,31.85-31.95,47.54-3.67,5.3-8.2,10-12.43,14.91-8.15,9.45-16.07,19.12-24.62,28.2-8.01,8.51-16.64,16.44-25.11,24.49-5.16,4.91-10.46,9.69-15.85,14.33-6.04,5.2-12.22,10.24-18.42,15.24-5.27,4.25-10.51,8.56-16.04,12.45-9.83,6.92-19.88,13.52-29.82,20.28-16.64,11.32-34.15,21.17-52.37,29.61-18.63,8.63-37.54,16.75-56.66,24.21-12.28,4.79-25.06,8.43-37.81,11.82-13.62,3.62-27.44,6.55-41.26,9.4-11.16,2.3-22.41,4.21-33.66,5.97-5.69.89-11.47,1.18-17.23,1.57-13.18.89-26.35,2.08-39.54,2.38-16.35.37-32.75.51-49.07-.28-13.53-.66-27.03-2.54-40.48-4.39-13.82-1.9-27.65-3.95-41.29-6.82-13.64-2.88-27.23-6.28-40.52-10.49-18.96-6.01-37.91-12.26-56.33-19.73-15.58-6.32-30.6-14.16-45.51-21.99-12.44-6.53-24.53-13.77-36.49-21.17-19.06-11.8-37.08-25.08-54.26-39.49-8.51-7.14-16.82-14.52-24.99-22.03-7.59-6.99-15.17-14.03-22.23-21.55-9.34-9.95-18.47-20.13-27.12-30.68-9.91-12.09-19.68-24.36-28.61-37.18-9.16-13.14-17.58-26.84-25.68-40.66-6.39-10.9-12.19-22.19-17.58-33.62-6.94-14.73-13.41-29.7-19.68-44.73-3.08-7.36-5.52-15.02-7.81-22.68-3.71-12.41-7.01-24.94-10.57-37.39-1.59-5.56-3.65-10.99-4.98-16.6-1-4.22-1.07-8.65-1.77-12.96-1.32-8.1-2.81-16.18-4.18-24.27-.43-2.53-.75-5.07-1.03-7.62-.54-4.95-.44-10.07-1.74-14.81-.74-2.69-.09-5.13-.52-7.64-1.33-7.66-.78-15.48-1.7-23.11-1.07-8.86.12-17.62-.24-26.43-.37-9.09.11-18.24.54-27.34.53-11.08,1.09-22.18,2.24-33.21,1.04-9.98,2.75-19.9,4.45-29.79,2.09-12.12,3.99-24.3,6.87-36.24,3.35-13.89,7.26-27.68,11.61-41.29,24.83-77.62,65.1-146.26,120.5-206.01,42.12-45.43,90.36-82.97,145.16-111.9,39.79-21,81.33-37.7,125.24-47.92,17.12-3.98,34.43-7.23,51.77-10.15,11.51-1.94,23.19-3.23,34.84-3.89,18.7-1.05,37.45-1.55,56.18-1.85,8.91-.14,17.87.35,26.75,1.16,13.02,1.19,25.99,2.93,38.99,4.4,21.1,2.38,41.84,6.71,62.35,12.08,20.7,5.42,41.23,11.55,60.97,19.86,17.17,7.23,34.04,15.16,51.04,22.81,1.51.68,2.96,1.51,4.44,2.26.27.14.53.29.8.43.27.09.54.19.81.28.23.18.47.35.7.53,1.98,1.09,3.95,2.18,5.93,3.26.27.15.54.3.81.45,3.73,2.1,7.46,4.19,11.19,6.29.27.16.54.31.81.47.99.59,1.97,1.18,2.96,1.77.26.14.52.28.78.42.27.1.54.2.81.3.24.18.47.37.71.55.98.58,1.96,1.16,2.93,1.74.27.15.54.31.81.46.98.59,1.96,1.19,2.94,1.78.27.16.54.32.81.49.47.33.95.66,1.42.99.27.16.55.31.82.47,1.02.59,2.03,1.18,3.05,1.77.24.2.47.39.71.59,1.98,1.31,3.97,2.63,5.95,3.94.26.14.52.29.78.43,4.86,3.13,9.83,6.1,14.53,9.44,4.15,2.95,7.98,6.33,11.99,9.48,9.69,7.63,19.53,15.07,29.05,22.9,5.64,4.64,10.88,9.8,16.16,14.85,8.6,8.23,17.13,16.53,25.62,24.88,3.05,3,5.88,6.23,8.81,9.35.36.47.71.93,1.07,1.4Zm101.94,366.37c0-6.34-3.21-10.08-8.81-10.09-6.91-.02-9.71,4.32-9.74,10.32-.03,6.07,2.59,8.98,9.85,9.14,6.03.13,8.7-2.84,8.7-9.37ZM212.01,910.53c.01-5.97-4.05-10.24-9.73-10.24-5.52,0-9.01,3.56-9.02,9.21-.02,5.48,4.44,10.32,9.48,10.29,5.5-.03,9.26-3.79,9.27-9.27Zm-102.02-172.91c-5.59.01-8.91,3.33-8.94,8.92-.03,6.27,3.96,10.68,9.59,10.59,5.01-.08,9.23-4.31,9.14-9.29-.1-5.7-4.5-11.1-9.8-10.21ZM962.38,243.19c-.02-5.02-4.91-9.94-9.94-10.02-5.09-.07-9.68,4.66-9.56,9.86.11,4.71,5.42,9.65,10.3,9.6,4.25-.04,10-4.35,9.2-9.44Zm-194.15-128.85c.91-6.65-5.25-9.63-10.26-10.01-5.17-.39-9.09,3.74-9.13,9.05-.04,5.75,3.9,9.55,9.93,9.56,5.52.01,9.45-3.56,9.46-8.6Zm185.01,803.94c-5.83-.02-10.25,4.07-10.36,9.6-.09,4.19,4.07,9.61,7.39,9.65,6.72.07,12.09-4.44,12.12-10.17.02-5.11-3.96-9.06-9.14-9.08Zm-109.75-754.86c5.76.04,9.47-3.51,9.44-9.05-.02-5.35-4.74-9.72-10.48-9.71-5.21.01-8.98,3.7-9.02,8.82-.05,5.74,4.17,9.9,10.06,9.94Zm233.58,282.46c.01-6.68-3.28-10.38-9.22-10.36-4.76.02-9.64,4.71-9.5,9.12.2,6.28,4.12,10.41,9.84,10.38,5.34-.03,8.87-3.66,8.88-9.15ZM801.44,122.93c-6.67,0-9.29,2.55-9.18,9.37.1,5.78,3.88,8.8,10.04,9.22,4.99.34,9.29-4.29,9.19-9.32-.11-5.76-3.92-9.27-10.06-9.27Zm-181.73-29.22c6.47.1,10.48-3.23,10.59-8.79.11-5.38-3.32-9.14-8.4-9.22-7.38-.12-10.89,2.42-11,7.95-.13,6.48,2.93,9.97,8.81,10.06Zm-312.05,82.46c5.67-.02,10.08-4.25,10.08-9.67,0-5.15-4.07-9.12-9.31-9.08-5.07.04-10.3,5.09-10.24,9.89.07,4.88,4.33,8.88,9.46,8.86Zm492.88,871.8c6.44.08,11.06-3.78,11.17-9.32.1-5.17-4.13-9.58-9.36-9.37-6.43.25-9.79,3.59-10.09,10.04-.23,4.89,3.51,8.59,8.29,8.65Zm-96.79-948.04c-.01,5.3,4.28,9.61,9.73,9.49,4.73-.11,9.82-3.86,9.78-9.54-.04-5.27-4.47-8.99-10.44-9.24-5.49-.23-9.14,4.17-9.07,9.29Zm-176.36-21.97c-5.91-.04-10.22,3.51-10.29,8.46-.07,5.18,4.09,9.45,9.29,9.54,5.91.1,9.94-3.46,10.31-8.4.42-5.54-3.59-10.81-9.31-9.6Zm140.13,994c-6.49,0-10.4,3.36-10.25,8.79.15,5.31,4.72,9.21,10.78,9.21,5.22,0,8.72-3.73,8.72-9.32,0-6.1-2.76-8.69-9.25-8.68Zm-277.15-32.98c-6.52-.42-9.3,4.05-9.5,8.48-.21,4.69,3.99,10.24,10.1,10.28,5.31.03,9.17-3.87,9.19-9.28.01-5.82-3.76-9.47-9.79-9.47Zm-146.13-94.32c.01-5.62-4.09-9.85-9.59-9.88-5.04-.03-10,4.53-9.91,9.09.09,4.62,5.55,9.66,10.48,9.66,5.67.01,9.01-3.28,9.03-8.87Zm281.83,148.3c6.53.04,10.5-3.25,10.52-8.75.03-5.81-3.7-9.07-10.04-9.3-5.93-.21-9.23,3.46-9.43,9.28-.18,5.19,3.55,8.73,8.95,8.77Zm-45.93-25.5c-6.02.02-9.54,3.27-9.53,8.79.01,5.34,4.51,9.28,10.52,9.22,5.24-.05,8.98-3.9,8.99-9.26,0-5.61-3.58-8.76-9.98-8.74Zm581.94-298.21c.01-5.52-3.5-9.24-8.87-9.11-7.11.17-8.62,3.44-9.39,10.16-.58,5.01,3.24,9.22,8.98,9.29,5.17.06,9.27-4.59,9.28-10.35Zm-964.77-113.02c0-6.29-3.25-9.81-8.74-10.11-5.43-.3-9.43,4.32-9.34,8.59.13,5.69,3.5,11.26,10.07,10.94,4.84-.24,8.01-3.75,8.01-9.41Zm22.54-233.38c-.08-5.43-3.62-8.39-9.97-8.31-5.09.06-9.01,4.45-8.84,9.88.15,4.9,4.28,8.83,9.31,8.86,5.26.03,9.58-4.71,9.5-10.42Zm197.1,580.49c0-5.64-3.77-9.32-9.53-9.34-5.7-.01-8.98,3.16-9.23,8.46-.25,5.29,4.4,10.67,9.91,10.36,5.73-.32,8.86-3.4,8.86-9.48Zm751.17-287.45c-5.72,0-9.79,4.08-9.78,9.75.01,3.74,4.9,9.72,8.01,9.55,7.59-.42,11.12-4.47,10.78-10.65-.31-5.77-3.05-8.66-9.01-8.65Zm-149.22-514.99c-6.28,0-9.04,2.56-9.01,8.33.04,5.98,4.04,10.42,9.39,10.42,5.57,0,9.36-3.85,9.36-9.48,0-6.06-3.38-9.27-9.74-9.27Zm-204.86,861.32c-6.85-.01-10.32,3.05-10.3,9.09.02,5.45,3.44,8.88,8.9,8.92,6.21.04,10.66-3.87,10.6-9.34-.06-5.41-3.5-8.65-9.2-8.66Zm177.87-72.21c.02-5.36-3.36-8.74-8.77-8.75-6.31-.02-10.69,3.94-10.73,9.7-.03,4.45,4.62,9,9.25,9.05,5.28.06,10.24-4.78,10.25-10Zm-743.22-166.17c-5.72,0-9.43,3.42-9.42,8.67.02,5.37,4.2,10.09,8.94,10.08,6.2-.01,9.81-3.33,9.82-9.05.01-6.5-3.08-9.71-9.34-9.71Zm285.99,231.63c-5.99,0-9.62,3.14-9.8,8.46-.18,5.14,4.41,9.54,9.95,9.54,5.82,0,10.32-4.02,9.97-9.43-.39-6.07-4.61-9.35-10.12-8.58Zm584.67-202.32c-.02-5.14-3.87-9.11-8.77-9.04-5.29.07-10.01,4.74-9.99,9.87.03,5.14,4.33,9.67,9.12,9.6,5.14-.08,9.65-4.96,9.63-10.43Zm-9.61-545.05c-5.44,0-9.34,3.57-9.09,8.68.18,3.72,4.24,10.44,9.75,10.18,4.8-.22,9.52-4.35,9.66-9.26.15-5.31-4.49-9.6-10.32-9.6Zm69.2,362.07c-6.15.01-9.43,3.5-9.38,9.96.04,5.42,3.6,8.77,9.33,8.79,5.51.02,9.46-4.19,9.42-10.05-.03-5.2-3.81-8.71-9.37-8.7ZM400.16,122.23c.02-5.5-3.23-9.03-8.42-9.14-5.69-.12-10.35,4.09-10.45,9.45-.1,5.23,3.88,9.35,9.04,9.36,5.85.01,9.8-3.88,9.83-9.67ZM127.46,389.06c5.7-.08,9.67-4.14,9.7-9.93.03-5.12-4.1-9.04-9.41-8.95-5.25.1-9.52,4.79-9.46,10.4.05,5.02,3.87,8.54,9.17,8.47Zm925.18,2.99c-6.34,0-9.24,2.56-9.32,8.09-.08,4.99,4.02,10.94,9.64,10.71,5.29-.22,9.17-3.99,9.13-9.41-.04-5.9-3.55-9.4-9.44-9.4Zm-79.03,500.37c0,5.34,3.75,9.34,8.81,9.39,5.59.05,9.8-4.33,9.98-10.02.17-5.39-3.18-8.95-9.16-9.24-4.93-.24-9.63,4.9-9.64,9.87Zm-799.95-28.86c-5.97,0-8.81,2.62-8.81,8.11,0,6.47,3.69,10.41,9.46,10.71,4.77.24,9.58-4.58,9.29-9.3-.35-5.7-4.01-9.52-9.94-9.51ZM992.37,279.09c0-5.43-4.15-9.83-9.35-9.96-5.54-.15-9.46,4.08-9.42,8.99.04,5.07,4.89,10.4,9.62,10.49,4.79.09,9.14-4.45,9.14-9.52Zm-808.85,18.52c-.04-5.59-3.59-9.27-8.91-9.27-5.41,0-9.86,4.75-9.79,10.44.05,4.62,4.17,8.68,8.81,8.69,5.61.02,9.93-4.29,9.89-9.86Zm252.21-200.17c-6.45.02-10.94,3.8-10.84,9.12.09,4.59,4.81,8.98,9.7,9,5.65.03,9.82-3.79,9.8-8.97-.02-6.09-2.94-9.17-8.66-9.16Zm231.27-16.49c-5.68-.02-9.54,3.21-9.73,8.14-.21,5.76,4.42,9.84,11.19,9.87,4.87.02,8.28-3.6,8.31-8.8.04-6.24-3.09-9.18-9.77-9.2Zm90.33,985.02c6.27.12,10.69-3.7,10.89-9.42.17-4.62-3.61-8.27-8.36-8.62-8.33-.61-10.92,4.15-11.11,8.57-.26,5.84,3.03,9.36,8.58,9.47Zm161.89-113.95c-5.75.09-10.16,4.21-10.07,9.43.09,5.25,4.24,8.7,10.3,8.58,5.8-.12,9.3-3.99,9.2-10.17-.08-4.99-3.61-7.92-9.43-7.83ZM244.24,225.94c.04-5.8-3.2-9.3-8.62-9.31-5.1,0-10.03,4.85-10.11,9.96-.08,4.94,3.65,8.77,8.57,8.79,6.59.03,10.12-3.25,10.16-9.44Zm376.18,869.25c6.37.03,9.83-3.35,9.88-9.62.04-4.96-3.44-8.34-8.62-8.36-6.78-.04-10.73,3.07-10.84,8.82-.08,4.26,4.78,10.34,9.58,9.17Zm455.9-462.61c0,6.67,2.86,9.85,8.88,9.85,5.91,0,9.12-3.21,9.13-9.14,0-6.6-2.73-9.59-8.8-9.61-5.98-.01-9.2,3.09-9.21,8.9Zm-193.82-442.92c5.43.08,9.37-3.72,9.42-9.08.05-5.3-4.15-9.35-9.44-9.74-5.69-.41-9.42,4.05-9.35,8.85.09,5.82,3.77,9.88,9.37,9.96Zm150.49,158.91c-5.44.04-9.6,3.67-9.03,8.7.59,5.17,3.33,10.67,9.97,10.14,5.38-.43,8.69-3.6,8.67-9.3-.02-6.01-3.61-9.57-9.61-9.53Zm-675.55,679.18c-.01-5.67-3.65-9.03-9.76-9.02-5.81,0-9.03,3.19-8.97,8.87.05,5.31,4.63,9.97,10.04,9.84,5.14-.12,9.48-4.86,8.69-9.69Zm-97.46-52.69c-.05,5.6,4.23,9.91,9.89,9.95,5.37.03,8.98-3.06,9.37-8.65.36-5.34-4.67-10.11-10.04-10.1-5.35,0-9.18,3.66-9.22,8.8Zm818.61-493.06c-5.51,0-8.94,3.54-9.04,9.03-.09,5.46,4.44,9.84,9.25,9.88,4.19.03,9.71-4.07,9.43-9.03-.31-5.62-3.14-10.65-9.64-9.88Zm-235.16,525.49c-5.66,0-9.96,3.84-9.99,8.9-.03,5.32,4.27,9.95,9.16,9.85,5.44-.11,9.6-4.63,9.59-10.39-.01-5.75-2.76-8.37-8.76-8.36ZM127.29,781.85c-5.55.01-9,3.34-9,8.68,0,5.73,4.12,10.06,9.57,10.08,5.31.02,9.21-3.81,9.18-9.02-.04-5.59-4.2-9.74-9.75-9.73Zm-38.3-275.86c-5.95,0-9.64,3.68-9.68,9.66-.03,4.27,4.48,9.07,8.53,9.07,6.17,0,10.29-4.17,10.33-10.27.03-4.19-3.87-9.51-9.18-8.46ZM583.07,83.37c0-5.63-3.61-9.2-9.29-9.16-5.81.04-9.62,3.77-9.58,9.38.03,4.59,3.87,9.38,7.72,9.26,6.75-.21,11.71-3.68,11.15-9.48ZM96.98,692.65c-5.12-1.03-8.88,3.61-8.73,8.53.22,7,3.06,10.24,9.61,10.23,5.03,0,8.45-3.67,8.45-9.05,0-6.41-3.18-9.72-9.33-9.71Zm997.34-155.18c0-6.36-2.48-8.99-8.48-8.99-5.81,0-9.5,3.46-9.52,8.92-.02,6.31,3.29,9.84,9.19,9.83,5.73-.02,8.81-3.42,8.81-9.76Zm-1001.5,24.65c-.06-6.88-2.77-9.72-9.2-9.64-5.25.06-8.83,4.01-8.8,9.69.03,5.14,4.21,9.17,9.53,9.18,5.53.01,8.52-3.25,8.47-9.23Zm4.63-102.6c-5.4-.98-9.27,4.66-9.16,9.78.12,5.07,3.95,9.02,8.94,9.03,5.61.01,9.11-3.96,9.08-10.31-.03-5.54-3.15-8.53-8.87-8.5Zm60.59-122.58c.03-5.23-3.3-8.54-8.47-8.76-5.87-.25-9.72,4.92-10.2,9.78-.46,4.66,4.32,9.19,9.2,9.28,5.77.11,9.43-3.88,9.47-10.3ZM481.03,85.45c-6.09.05-10.56,4.02-10.41,9.25.13,4.72,4.38,8.88,9.05,8.87,6.03-.01,10.53-4.05,10.45-9.36-.07-5.2-3.81-8.81-9.09-8.77Zm552.56,718.14c-5.16,0-9.88,4.31-9.68,9.29.17,4.32,3.61,9.63,9.21,9.47,5.31-.15,9.93-4.77,10.03-10.24.09-4.9-3.98-8.54-9.55-8.53ZM270.74,185.9c-5.89,0-10.2,4.04-10.14,9.5.05,4.7,4.56,9.37,8.91,9.25,5.2-.15,10.06-4.95,10.09-9.96.03-5.24-3.55-8.8-8.86-8.79Zm-67.38,65.97c-5.71,0-10.11,4.08-10.11,9.37,0,5.17,3.91,8.63,9.76,8.63,5.83,0,9.02-3.59,9.01-10.14,0-4.88-3.3-7.87-8.66-7.86Zm370.39,826.84c-5.45-1.16-10.19,4.24-10.1,9.05.08,4.61,5.29,9.23,9.63,9.02,5.74-.29,9.77-3.82,9.79-9.22.01-5.83-3.16-8.84-9.31-8.85ZM84.78,599.7c-5.61,0-9.68,3.77-9.95,9.22-.23,4.61,4.21,9.43,8.59,9.55,7.07.2,9.72-4.49,10.09-10.34.31-4.93-3.54-8.43-8.73-8.42ZM348.88,134.18c-5.71-.91-10.12,4.05-10.19,8.93-.07,4.99,4.3,9.27,9.33,9.19,5.58-.09,9.42-4.24,9.42-10.18,0-5.08-3.08-7.94-8.56-7.94Z"/>
      <path class="cls-1" d="m1103.31,400.3c-.42-.75-.84-1.51-1.26-2.26.42.75.84,1.51,1.26,2.26Z"/>
      <path class="cls-1" d="m1097.51,784.88c.43-.76.86-1.51,1.3-2.27-.43.76-.86,1.51-1.3,2.27Z"/>
      <path class="cls-1" d="m1090.69,801.36c.47-.71.94-1.43,1.42-2.14-.47.71-.94,1.43-1.42,2.14Z"/>
      <path class="cls-1" d="m994.62,218.69c-.36-.47-.71-.93-1.07-1.4.36.47.71.93,1.07,1.4Z"/>
      <path class="cls-1" d="m887.39,126.38c-.26-.14-.52-.29-.78-.43.26.14.52.29.78.43Z"/>
      <path class="cls-1" d="m1106.52,760.11c.18-.25.36-.49.54-.74-.18.25-.36.49-.54.74Z"/>
      <path class="cls-1" d="m880.66,122.01c-.24-.2-.47-.39-.71-.59.24.2.47.39.71.59Z"/>
      <path class="cls-1" d="m1080.18,824.59c.22-.24.43-.48.65-.72-.22.24-.43.48-.65.72Z"/>
      <path class="cls-1" d="m1108.55,416.05c-.18-.25-.36-.5-.54-.75.18.25.36.5.54.75Z"/>
      <path class="cls-1" d="m1085.44,813.35c.21-.24.43-.48.64-.72-.21.24-.43.48-.64.72Z"/>
      <path class="cls-1" d="m1107.8,413.81c-.18-.25-.36-.5-.54-.76.18.25.36.5.54.76Z"/>
      <path class="cls-1" d="m1107.05,411.56c-.18-.25-.36-.51-.54-.76.18.25.36.51.54.76Z"/>
      <path class="cls-1" d="m876.9,119.66c-.27-.16-.55-.31-.82-.47.27.16.55.31.82.47Z"/>
      <path class="cls-1" d="m1106.3,409.31c-.18-.25-.36-.51-.54-.76.18.25.36.51.54.76Z"/>
      <path class="cls-1" d="m1105.55,407.06c-.18-.25-.36-.51-.55-.76.18.25.36.51.55.76Z"/>
      <path class="cls-1" d="m874.66,118.2c-.27-.16-.54-.32-.81-.49.27.16.54.32.81.49Z"/>
      <path class="cls-1" d="m870.91,115.93c-.27-.15-.54-.31-.81-.46.27.15.54.31.81.46Z"/>
      <path class="cls-1" d="m1092.98,796.11c.2-.24.4-.49.59-.73-.2.24-.4.49-.59.73Z"/>
      <path class="cls-1" d="m1107.92,755.62c.21-.25.42-.5.63-.75-.21.25-.42.5-.63.75Z"/>
      <path class="cls-1" d="m1092.07,371.78c-.19-.24-.39-.47-.58-.71.19.24.39.47.58.71Z"/>
      <path class="cls-1" d="m867.17,113.73c-.24-.18-.47-.37-.71-.55.24.18.47.37.71.55Z"/>
      <path class="cls-1" d="m1089.83,366.51c-.21-.23-.43-.47-.64-.7.21.23.43.47.64.7Z"/>
      <path class="cls-1" d="m1086.83,359.77c-.21-.23-.43-.47-.64-.7.21.23.43.47.64.7Z"/>
      <path class="cls-1" d="m865.65,112.89c-.26-.14-.52-.28-.78-.42.26.14.52.28.78.42Z"/>
      <path class="cls-1" d="m861.91,110.69c-.27-.16-.54-.31-.81-.47.27.16.54.31.81.47Z"/>
      <path class="cls-1" d="m1082.33,350.03c-.21-.24-.43-.47-.64-.71.21.24.43.47.64.71Z"/>
      <path class="cls-1" d="m849.92,103.93c-.27-.15-.54-.3-.81-.45.27.15.54.3.81.45Z"/>
      <path class="cls-1" d="m843.18,100.21c-.23-.18-.47-.35-.7-.53.23.18.47.35.7.53Z"/>
      <path class="cls-1" d="m841.67,99.41c-.27-.14-.53-.29-.8-.43.27.14.53.29.8.43Z"/>
      <path class="cls-1" d="m1096.57,585.06c0,6.53-2.67,9.5-8.7,9.37-7.26-.16-9.88-3.07-9.85-9.14.03-6,2.84-10.34,9.74-10.32,5.6.01,8.81,3.76,8.81,10.09Z"/>
      <path class="cls-1" d="m962.38,243.19c.8,5.09-4.95,9.4-9.2,9.44-4.88.05-10.19-4.89-10.3-9.6-.12-5.2,4.47-9.93,9.56-9.86,5.04.07,9.93,5,9.94,10.02Z"/>
      <path class="cls-1" d="m768.23,114.34c-.02,5.05-3.95,8.62-9.46,8.6-6.02-.01-9.97-3.82-9.93-9.56.04-5.31,3.96-9.45,9.13-9.05,5,.38,11.16,3.36,10.26,10.01Z"/>
      <path class="cls-1" d="m953.24,918.28c5.18.02,9.16,3.97,9.14,9.08-.02,5.73-5.4,10.25-12.12,10.17-3.32-.04-7.47-5.46-7.39-9.65.12-5.53,4.53-9.62,10.36-9.6Z"/>
      <path class="cls-1" d="m843.49,163.42c-5.89-.04-10.1-4.2-10.06-9.94.04-5.12,3.82-8.81,9.02-8.82,5.74-.01,10.46,4.36,10.48,9.71.02,5.53-3.68,9.08-9.44,9.05Z"/>
      <path class="cls-1" d="m1077.08,445.88c-.01,5.48-3.54,9.12-8.88,9.15-5.72.03-9.64-4.11-9.84-10.38-.14-4.41,4.74-9.1,9.5-9.12,5.94-.02,9.23,3.68,9.22,10.36Z"/>
      <path class="cls-1" d="m801.44,122.93c6.14,0,9.95,3.51,10.06,9.27.1,5.02-4.21,9.66-9.19,9.32-6.17-.43-9.95-3.44-10.04-9.22-.12-6.82,2.5-9.37,9.18-9.37Z"/>
      <path class="cls-1" d="m619.71,93.71c-5.88-.09-8.94-3.58-8.81-10.06.11-5.53,3.62-8.07,11-7.95,5.08.08,8.51,3.84,8.4,9.22-.11,5.56-4.12,8.88-10.59,8.79Z"/>
      <path class="cls-1" d="m307.66,176.17c-5.12.02-9.39-3.98-9.46-8.86-.07-4.8,5.17-9.85,10.24-9.89,5.24-.04,9.31,3.94,9.31,9.08,0,5.41-4.42,9.65-10.08,9.67Z"/>
      <path class="cls-1" d="m800.54,1047.97c-4.77-.06-8.51-3.76-8.29-8.65.3-6.45,3.67-9.79,10.09-10.04,5.23-.21,9.46,4.2,9.36,9.37-.11,5.54-4.73,9.4-11.17,9.32Z"/>
      <path class="cls-1" d="m703.75,99.93c-.07-5.12,3.58-9.52,9.07-9.29,5.97.25,10.4,3.97,10.44,9.24.04,5.68-5.05,9.43-9.78,9.54-5.45.13-9.74-4.18-9.73-9.49Z"/>
      <path class="cls-1" d="m527.39,77.96c5.71-1.21,9.73,4.06,9.31,9.6-.38,4.94-4.4,8.5-10.31,8.4-5.2-.09-9.36-4.36-9.29-9.54.07-4.96,4.38-8.5,10.29-8.46Z"/>
      <path class="cls-1" d="m667.52,1071.96c6.5,0,9.26,2.58,9.25,8.68,0,5.59-3.5,9.32-8.72,9.32-6.07,0-10.64-3.91-10.78-9.21-.15-5.43,3.76-8.78,10.25-8.79Z"/>
      <path class="cls-1" d="m390.37,1038.97c6.03,0,9.8,3.66,9.79,9.47-.01,5.42-3.88,9.32-9.19,9.28-6.11-.04-10.31-5.59-10.1-10.28.2-4.43,2.98-8.9,9.5-8.48Z"/>
      <path class="cls-1" d="m526.07,1092.96c-5.4-.03-9.13-3.57-8.95-8.77.2-5.83,3.51-9.5,9.43-9.28,6.34.23,10.06,3.49,10.04,9.3-.02,5.5-3.99,8.79-10.52,8.75Z"/>
      <path class="cls-1" d="m480.14,1067.46c6.4-.02,9.99,3.13,9.98,8.74,0,5.36-3.74,9.21-8.99,9.26-6.01.06-10.5-3.88-10.52-9.22-.02-5.52,3.51-8.77,9.53-8.79Z"/>
      <path class="cls-1" d="m1062.08,769.24c-.01,5.76-4.11,10.41-9.28,10.35-5.74-.07-9.56-4.28-8.98-9.29.77-6.73,2.29-9.99,9.39-10.16,5.37-.13,8.88,3.58,8.87,9.11Z"/>
      <path class="cls-1" d="m316.96,1003.33c0,6.08-3.13,9.16-8.86,9.48-5.51.31-10.16-5.07-9.91-10.36.25-5.3,3.53-8.47,9.23-8.46,5.76.01,9.53,3.7,9.53,9.34Z"/>
      <path class="cls-1" d="m1068.13,715.88c5.96,0,8.7,2.88,9.01,8.65.34,6.18-3.2,10.24-10.78,10.65-3.11.17-7.99-5.82-8.01-9.55-.02-5.68,4.06-9.75,9.78-9.75Z"/>
      <path class="cls-1" d="m918.91,200.89c6.36,0,9.74,3.21,9.74,9.27,0,5.63-3.79,9.48-9.36,9.48-5.35,0-9.36-4.44-9.39-10.42-.03-5.77,2.73-8.33,9.01-8.33Z"/>
      <path class="cls-1" d="m714.05,1062.21c5.7.01,9.15,3.25,9.2,8.66.06,5.47-4.39,9.38-10.6,9.34-5.45-.04-8.88-3.47-8.9-8.92-.02-6.03,3.45-9.1,10.3-9.09Z"/>
      <path class="cls-1" d="m891.92,990.01c-.02,5.22-4.98,10.06-10.25,10-4.63-.05-9.28-4.6-9.25-9.05.04-5.76,4.42-9.72,10.73-9.7,5.41.02,8.79,3.39,8.77,8.75Z"/>
      <path class="cls-1" d="m434.69,1055.47c5.51-.78,9.73,2.51,10.12,8.58.35,5.4-4.15,9.43-9.97,9.43-5.54,0-10.12-4.4-9.95-9.54.18-5.32,3.81-8.46,9.8-8.46Z"/>
      <path class="cls-1" d="m1019.36,853.14c.02,5.47-4.49,10.36-9.63,10.43-4.79.07-9.1-4.46-9.12-9.6-.03-5.14,4.69-9.8,9.99-9.87,4.9-.07,8.75,3.9,8.77,9.04Z"/>
      <path class="cls-1" d="m1009.74,308.09c5.84,0,10.48,4.29,10.32,9.6-.14,4.91-4.86,9.04-9.66,9.26-5.51.25-9.57-6.47-9.75-10.18-.25-5.11,3.65-8.68,9.09-8.68Z"/>
      <path class="cls-1" d="m1078.95,670.16c5.56-.01,9.34,3.5,9.37,8.7.03,5.86-3.92,10.07-9.42,10.05-5.73-.02-9.28-3.37-9.33-8.79-.05-6.46,3.23-9.95,9.38-9.96Z"/>
      <path class="cls-1" d="m400.16,122.23c-.02,5.79-3.98,9.68-9.83,9.67-5.16,0-9.14-4.13-9.04-9.36.1-5.36,4.76-9.57,10.45-9.45,5.19.11,8.45,3.64,8.42,9.14Z"/>
      <path class="cls-1" d="m1052.64,392.05c5.89,0,9.4,3.49,9.44,9.4.04,5.42-3.84,9.19-9.13,9.41-5.62.23-9.71-5.72-9.64-10.71.09-5.54,2.99-8.09,9.32-8.09Z"/>
      <path class="cls-1" d="m973.61,892.42c0-4.97,4.7-10.11,9.64-9.87,5.97.29,9.32,3.85,9.16,9.24-.18,5.69-4.39,10.07-9.98,10.02-5.06-.05-8.82-4.05-8.81-9.39Z"/>
      <path class="cls-1" d="m992.37,279.09c0,5.08-4.36,9.62-9.14,9.52-4.73-.09-9.58-5.42-9.62-10.49-.04-4.91,3.87-9.14,9.42-8.99,5.19.14,9.34,4.53,9.35,9.96Z"/>
      <path class="cls-1" d="m435.73,97.45c5.72-.02,8.64,3.07,8.66,9.16.02,5.18-4.15,8.99-9.8,8.97-4.89-.02-9.61-4.41-9.7-9-.1-5.32,4.4-9.1,10.84-9.12Z"/>
      <path class="cls-1" d="m667,80.95c6.69.02,9.81,2.96,9.77,9.2-.03,5.2-3.44,8.82-8.31,8.8-6.77-.03-11.4-4.11-11.19-9.87.18-4.92,4.05-8.16,9.73-8.14Z"/>
      <path class="cls-1" d="m757.33,1065.97c-5.54-.11-8.83-3.63-8.58-9.47.19-4.42,2.79-9.18,11.11-8.57,4.74.35,8.52,4,8.36,8.62-.21,5.72-4.63,9.54-10.89,9.42Z"/>
      <path class="cls-1" d="m919.22,952.02c5.82-.09,9.34,2.84,9.43,7.83.1,6.18-3.4,10.05-9.2,10.17-6.06.13-10.21-3.33-10.3-8.58-.09-5.22,4.32-9.34,10.07-9.43Z"/>
      <path class="cls-1" d="m620.42,1095.19c-4.8,1.17-9.67-4.9-9.58-9.17.11-5.74,4.06-8.85,10.84-8.82,5.18.03,8.66,3.4,8.62,8.36-.05,6.28-3.51,9.65-9.88,9.62Z"/>
      <path class="cls-1" d="m1076.31,632.58c0-5.8,3.22-8.91,9.21-8.9,6.07.01,8.8,3,8.8,9.61,0,5.93-3.22,9.15-9.13,9.14-6.02,0-8.88-3.19-8.88-9.85Z"/>
      <path class="cls-1" d="m882.5,189.66c-5.6-.09-9.28-4.15-9.37-9.96-.07-4.8,3.66-9.26,9.35-8.85,5.29.38,9.48,4.44,9.44,9.74-.05,5.36-3.99,9.16-9.42,9.08Z"/>
      <path class="cls-1" d="m1032.99,348.57c6-.04,9.59,3.52,9.61,9.53.02,5.71-3.3,8.87-8.67,9.3-6.64.54-9.38-4.96-9.97-10.14-.57-5.03,3.6-8.66,9.03-8.7Z"/>
      <path class="cls-1" d="m357.44,1027.75c.79,4.83-3.55,9.57-8.69,9.69-5.41.12-9.99-4.53-10.04-9.84-.05-5.68,3.16-8.86,8.97-8.87,6.11,0,9.75,3.35,9.76,9.02Z"/>
      <path class="cls-1" d="m1078.58,482c6.5-.78,9.33,4.25,9.64,9.88.27,4.97-5.24,9.07-9.43,9.03-4.81-.04-9.35-4.42-9.25-9.88.1-5.5,3.53-9.02,9.04-9.03Z"/>
      <path class="cls-1" d="m843.42,1007.49c6,0,8.75,2.61,8.76,8.36.01,5.77-4.15,10.28-9.59,10.39-4.89.1-9.2-4.53-9.16-9.85.03-5.07,4.32-8.89,9.99-8.9Z"/>
      <path class="cls-1" d="m583.07,83.37c.56,5.8-4.4,9.26-11.15,9.48-3.86.12-7.69-4.67-7.72-9.26-.04-5.61,3.77-9.34,9.58-9.38,5.68-.04,9.3,3.53,9.29,9.16Z"/>
      <path class="cls-1" d="m1094.32,537.47c0,6.34-3.07,9.75-8.81,9.76-5.91.02-9.22-3.52-9.19-9.83.02-5.46,3.71-8.92,9.52-8.92,6,0,8.48,2.62,8.48,8.99Z"/>
      <path class="cls-1" d="m481.03,85.45c5.27-.04,9.01,3.57,9.09,8.77.07,5.31-4.43,9.34-10.45,9.36-4.66.01-8.91-4.16-9.05-8.87-.15-5.24,4.32-9.21,10.41-9.25Z"/>
      <path class="cls-1" d="m1033.59,803.59c5.57,0,9.64,3.63,9.55,8.53-.1,5.47-4.71,10.09-10.03,10.24-5.59.16-9.04-5.15-9.21-9.47-.2-4.98,4.53-9.28,9.68-9.29Z"/>
      <path class="cls-1" d="m573.76,1078.71c6.16,0,9.32,3.01,9.31,8.85-.01,5.4-4.05,8.93-9.79,9.22-4.34.22-9.55-4.41-9.63-9.02-.09-4.82,4.65-10.21,10.1-9.05Z"/>
      <path class="cls-1" d="m348.88,134.18c5.48,0,8.56,2.86,8.56,7.94,0,5.94-3.84,10.09-9.42,10.18-5.03.08-9.4-4.21-9.33-9.19.07-4.88,4.48-9.84,10.19-8.93Z"/>
    </g>
  </g>
  <path class="cls-1" d="m816.63,729.12v-17.68c-57.47,1.26-112.42,1.26-170.53,0v17.68c40.42,4.42,54.95,18.95,54.95,74.53s-16.42,80.84-57.47,80.84c-73.89,0-115.58-90.95-115.58-197.68s43.58-162.95,101.68-162.95c51.79,0,94.11,39.16,119.37,99.16h24c-13.89-40.42-19.58-76.42-22.11-113.68-10.1,4.42-20.84,5.05-28.42,5.05-36.63,0-57.47-15.16-104.84-15.16-10.37,0-20.42.78-30.13,2.29,48.23-21.87,70.16-58.33,70.16-104.19,0-66.95-46.74-114.95-185.05-114.95-32.21,0-90.95,2.53-152.21,0v18.95c29.05,2.53,41.68,10.11,41.68,35.37v283.58c0,25.26-10.74,32.84-45.47,35.37v18.95c39.84-1.26,79.67-1.68,119.51-1.26-1.08,9.7-1.65,19.67-1.65,29.9,0,121.26,78.32,207.79,188.21,207.79,54.95,0,80.84-20.21,139.58-20.21,14.53,0,27.16,1.26,40.42,3.16v-13.9c-15.79-7.58-23.37-25.26-23.37-76.42,0-55.58,8.84-68.84,37.26-74.53Zm-365.44-418.32c8.84-4.42,22.74-6.32,36-6.32,63.16,0,85.89,42.95,85.89,92.21,0,69.47-41.68,106.74-121.89,106.74v-192.63Zm0,213.47c33.13.14,61.9-2.4,86.6-7.33-39.17,19.03-69.26,52.42-86.6,95.51v-88.18Z"/>
</svg>