<?xml version="1.0" encoding="UTF-8"?>
<svg id="Capa_1" data-name="Capa 1" xmlns="http://www.w3.org/2000/svg" viewBox="0 0 918.76 1155.19">
  <defs>
    <style>
      .cls-1 {
        fill: #fff;
      }
    </style>
  </defs>
  <path class="cls-1" d="m918.76,820.94v-32.5c-105.61,2.32-206.59,2.32-313.36,0v32.5c74.28,8.12,100.97,34.82,100.97,136.95s-30.18,148.56-105.62,148.56c-135.79,0-212.39-167.13-212.39-363.27s80.08-299.44,186.86-299.44c95.17,0,172.93,71.96,219.35,182.21h44.1c-25.53-74.28-35.98-140.43-40.62-208.91-18.57,8.12-38.3,9.28-52.23,9.28-67.31,0-105.61-27.85-192.66-27.85-19.05,0-37.52,1.44-55.36,4.21,88.64-40.2,128.93-107.19,128.93-191.46C626.73,88.21,540.84,0,286.67,0,227.48,0,119.54,4.64,6.96,0v34.82c53.39,4.64,76.6,18.57,76.6,64.99v521.11c0,46.42-19.73,60.35-83.56,64.99v34.82c73.2-2.31,146.41-3.08,219.61-2.32-1.98,17.82-3.02,36.15-3.02,54.94,0,222.84,143.92,381.84,345.86,381.84,100.97,0,148.56-37.14,256.49-37.14,26.69,0,49.91,2.32,74.28,5.8v-25.53c-29.01-13.93-42.94-46.42-42.94-140.43,0-102.13,16.25-126.51,68.48-136.95ZM247.21,52.23c16.25-8.12,41.78-11.61,66.15-11.61,116.06,0,157.84,78.92,157.84,169.45,0,127.67-76.6,196.14-224,196.14V52.23Zm0,392.28c60.87.27,113.75-4.41,159.13-13.47-71.99,34.97-127.28,96.33-159.13,175.51v-162.04Z"/>
</svg>